<svg width="156" height="29" viewBox="0 0 156 29" fill="none" xmlns="http://www.w3.org/2000/svg">
<path d="M10.4573 16.1258L14.5101 20.2298C14.6116 20.3325 14.776 20.3325 14.8775 20.2298L18.932 16.1241C19.0334 16.0214 19.0334 15.8548 18.932 15.7521L14.8791 11.6481C14.7777 11.5453 14.6132 11.5453 14.5118 11.6481L10.4573 15.7538C10.3559 15.8565 10.3559 16.0231 10.4573 16.1258Z" fill="#4E0000"/>
<path d="M22.7263 0.0717351C22.7263 0.0321169 22.6945 0 22.6554 0H17.3429C17.3038 0 17.272 0.0321169 17.272 0.0717351V2.26719L17.2603 2.25528V10.0593C17.2603 10.0783 17.2677 10.0966 17.281 10.11L22.061 14.9504C22.5609 15.4567 22.5609 16.2775 22.061 16.7838L17.2603 21.6452L16.9275 21.9834C16.7378 22.1763 16.7381 22.4859 16.9282 22.6784L20.0998 25.8901C20.2936 26.0864 20.6105 26.0864 20.8043 25.8901L28.4528 18.145C29.6951 16.8869 29.6951 14.8472 28.4528 13.5892L22.747 7.81133C22.7337 7.79788 22.7263 7.77963 22.7263 7.7606V0.0717351Z" fill="#4E0000"/>
<path d="M12.1242 21.6452L14.6923 24.2557L18.434 28.0455C18.4786 28.0907 18.447 28.168 18.3839 28.168H10.8297L0.931761 18.145C-0.310587 16.8869 -0.310587 14.8472 0.931761 13.5892L6.528 7.92224L12.0033 2.37774C12.0479 2.33255 12.1242 2.36455 12.1242 2.42846V10.0593C12.1242 10.0783 12.1168 10.0966 12.1035 10.11L10.5906 11.642L7.32354 14.9504C6.82357 15.4567 6.82357 16.2775 7.32354 16.7838L12.1242 21.6452Z" fill="#4E0000"/>
<path fill-rule="evenodd" clip-rule="evenodd" d="M39.0602 4.30469H51.3366C52.8144 4.30469 54.0123 5.51005 54.0123 6.99695V21.145C54.0123 22.6319 52.8144 23.8372 51.3366 23.8372H39.0602C37.5824 23.8372 36.3845 22.6319 36.3845 21.145V6.99695C36.3845 5.51006 37.5824 4.30469 39.0602 4.30469ZM41.5784 8.74857C41.1438 8.74857 40.7915 9.10309 40.7915 9.54041V18.5785C40.7915 19.0158 41.1438 19.3703 41.5784 19.3703H48.8184C49.253 19.3703 49.6054 19.0158 49.6054 18.5785V9.54041C49.6054 9.10309 49.253 8.74857 48.8184 8.74857H41.5784Z" fill="#4E0000"/>
<path d="M43.5586 12.4449C43.5586 12.4012 43.5938 12.3657 43.6373 12.3657H46.862C46.9054 12.3657 46.9407 12.4012 46.9407 12.4449V15.697C46.9407 15.7407 46.9054 15.7762 46.862 15.7762H43.6373C43.5938 15.7762 43.5586 15.7407 43.5586 15.697V12.4449Z" fill="#4E0000"/>
<path d="M60.8057 4.30469H55.7485C55.6827 4.30469 55.646 4.38097 55.6867 4.4329L62.1804 12.7198C63.2587 14.0959 65.3355 14.085 66.3996 12.6977L72.7394 4.43225C72.7794 4.3802 72.7425 4.30469 72.6771 4.30469H67.6191C67.5939 4.30469 67.5702 4.31684 67.5554 4.33737L64.304 8.84647L60.8682 4.3357C60.8533 4.31615 60.8302 4.30469 60.8057 4.30469Z" fill="#4E0000"/>
<path d="M60.8676 23.8236H55.8104C55.7446 23.8236 55.7079 23.7473 55.7486 23.6954L62.2422 15.4085C63.3206 14.0324 65.3974 14.0432 66.4615 15.4305L72.8013 23.696C72.8413 23.7481 72.8044 23.8236 72.739 23.8236H67.681C67.6557 23.8236 67.6321 23.8114 67.6173 23.7909L64.3659 19.2818L60.9301 23.7926C60.9152 23.8121 60.8921 23.8236 60.8676 23.8236Z" fill="#4E0000"/>
<path d="M79.7053 4.30469H74.6102C74.5495 4.30469 74.5116 4.37103 74.5423 4.42382L80.8873 15.3492C81.9257 17.1374 84.498 17.1254 85.5199 15.3276L91.7187 4.42319C91.7487 4.3704 91.7108 4.30469 91.6504 4.30469H86.5551C86.5266 4.30469 86.5002 4.32026 86.4864 4.34537L83.2222 10.2478L79.7731 4.34375C79.759 4.31955 79.7332 4.30469 79.7053 4.30469Z" fill="#4E0000"/>
<path d="M81.45 18.434C81.45 18.3902 81.4852 18.3548 81.5287 18.3548H84.6904C84.7339 18.3548 84.7691 18.3902 84.7691 18.434V23.7444C84.7691 23.7881 84.7339 23.8236 84.6904 23.8236H81.5287C81.4852 23.8236 81.45 23.7881 81.45 23.7444V18.434Z" fill="#4E0000"/>
<path d="M99.6556 12.3419H103.035V15.7499H99.6556V12.3419Z" fill="#4E0000"/>
<path d="M108.038 4.42346V8.7534C108.038 8.79713 108.003 8.83258 107.96 8.83258H98.6075C98.1729 8.83258 97.8206 9.1871 97.8206 9.62442V18.583C97.8206 19.0204 98.1729 19.3749 98.6075 19.3749H104.088C104.522 19.3749 104.875 19.0204 104.875 18.583V12.6694C104.875 12.6257 104.91 12.5902 104.953 12.5902H109.256C109.3 12.5902 109.335 12.6257 109.335 12.6694V21.1709C109.335 22.6578 108.137 23.8632 106.66 23.8632H96.0356C94.5579 23.8632 93.36 22.6578 93.36 21.1709V7.03654C93.36 5.54965 94.5579 4.34428 96.0356 4.34428H107.96C108.003 4.34428 108.038 4.37973 108.038 4.42346Z" fill="#4E0000"/>
<path d="M121.257 12.4211C121.257 12.3773 121.293 12.3419 121.336 12.3419H127.429C127.473 12.3419 127.508 12.3773 127.508 12.4211V15.6708C127.508 15.7145 127.473 15.7499 127.429 15.7499H121.336C121.293 15.7499 121.257 15.7145 121.257 15.6708V12.4211Z" fill="#4E0000"/>
<path d="M127.529 4.38387V8.71381C127.529 8.75754 127.494 8.79299 127.451 8.79299H118.116C117.682 8.79299 117.329 9.14751 117.329 9.58483V18.5434C117.329 18.9808 117.682 19.3353 118.116 19.3353H127.451C127.494 19.3353 127.529 19.3707 127.529 19.4145V23.7444C127.529 23.7881 127.494 23.8236 127.451 23.8236H115.641C114.169 23.8236 112.974 22.627 112.966 21.1457L112.891 7.01132C112.883 5.51883 114.083 4.30469 115.566 4.30469H127.451C127.494 4.30469 127.529 4.34014 127.529 4.38387Z" fill="#4E0000"/>
<path d="M142.904 23.7444C142.904 23.7881 142.939 23.8236 142.982 23.8236H147.07C147.113 23.8236 147.148 23.7881 147.148 23.7444V6.99695C147.148 5.51005 145.95 4.30469 144.473 4.30469H133.849C132.371 4.30469 131.173 5.51005 131.173 6.99695V23.7444C131.173 23.7881 131.208 23.8236 131.252 23.8236H135.339C135.382 23.8236 135.418 23.7881 135.418 23.7444V9.88003C135.418 9.44271 135.77 9.08819 136.205 9.08819H142.117C142.551 9.08819 142.904 9.44271 142.904 9.88003V23.7444Z" fill="#4E0000"/>
<path d="M150.69 4.42346C150.69 4.37973 150.725 4.34428 150.768 4.34428H155.435C155.478 4.34428 155.514 4.37973 155.514 4.42346V23.784C155.514 23.8277 155.478 23.8632 155.435 23.8632H150.768C150.725 23.8632 150.69 23.8277 150.69 23.784V4.42346Z" fill="#4E0000"/>
</svg>
