<svg width="29" height="44" viewBox="0 0 29 44" fill="none" xmlns="http://www.w3.org/2000/svg">
<g filter="url(#filter0_i_35_1711)">
<path d="M19.192 24.0625C19.192 26.7204 17.0439 28.875 14.394 28.875C11.7442 28.875 9.59601 26.7204 9.59601 24.0625C9.59601 21.4046 11.7442 19.25 14.394 19.25C17.0439 19.25 19.192 21.4046 19.192 24.0625Z" fill="#4E0000"/>
<path fill-rule="evenodd" clip-rule="evenodd" d="M28.788 28.875H0V44H5.19539C4.93684 43.1287 4.79801 42.2056 4.79801 41.25C4.79801 35.9343 9.09429 31.625 14.394 31.625C19.6937 31.625 23.99 35.9343 23.99 41.25C23.99 42.2056 23.8512 43.1287 23.5926 44H28.788V28.875Z" fill="#4E0000"/>
<path d="M19.192 4.8125C19.192 7.47037 17.0439 9.625 14.394 9.625C11.7442 9.625 9.59601 7.47037 9.59601 4.8125C9.59601 2.15463 11.7442 0 14.394 0C17.0439 0 19.192 2.15463 19.192 4.8125Z" fill="#4E0000"/>
<path fill-rule="evenodd" clip-rule="evenodd" d="M28.788 9.625H0V24.75H5.19539C4.93684 23.8787 4.79801 22.9556 4.79801 22C4.79801 16.6843 9.09429 12.375 14.394 12.375C19.6937 12.375 23.99 16.6843 23.99 22C23.99 22.9556 23.8512 23.8787 23.5926 24.75H28.788V9.625Z" fill="#4E0000"/>
</g>
<defs>
<filter id="filter0_i_35_1711" x="0" y="0" width="28.7881" height="48" filterUnits="userSpaceOnUse" color-interpolation-filters="sRGB">
<feFlood flood-opacity="0" result="BackgroundImageFix"/>
<feBlend mode="normal" in="SourceGraphic" in2="BackgroundImageFix" result="shape"/>
<feColorMatrix in="SourceAlpha" type="matrix" values="0 0 0 0 0 0 0 0 0 0 0 0 0 0 0 0 0 0 127 0" result="hardAlpha"/>
<feOffset dy="4"/>
<feGaussianBlur stdDeviation="2"/>
<feComposite in2="hardAlpha" operator="arithmetic" k2="-1" k3="1"/>
<feColorMatrix type="matrix" values="0 0 0 0 0.471128 0 0 0 0 0.140223 0 0 0 0 0.584582 0 0 0 1 0"/>
<feBlend mode="normal" in2="shape" result="effect1_innerShadow_35_1711"/>
</filter>
</defs>
</svg>
